<?xml version="1.0" standalone="no"?>
<!DOCTYPE svg PUBLIC "-//W3C//DTD SVG 20010904//EN"
 "http://www.w3.org/TR/2001/REC-SVG-20010904/DTD/svg10.dtd">
<svg version="1.0" xmlns="http://www.w3.org/2000/svg"
 width="3600.000000pt" height="3600.000000pt" viewBox="0 0 3600.000000 3600.000000"
 preserveAspectRatio="xMidYMid meet">
<metadata>
Created by potrace 1.15, written by Peter Selinger 2001-2017
</metadata>
<g transform="translate(0.000000,3600.000000) scale(0.100000,-0.100000)"
fill="#000000" stroke="none">
<path d="M2040 22433 c0 -3415 3 -6224 6 -6243 7 -44 42 -71 100 -78 24 -2 44
-8 44 -13 0 -4 17 -13 37 -20 21 -6 44 -18 51 -26 7 -7 22 -13 33 -13 10 0 19
-4 19 -8 0 -5 23 -15 50 -22 28 -7 50 -17 50 -22 0 -4 7 -8 16 -8 8 0 48 -15
87 -34 40 -19 89 -40 110 -47 20 -7 37 -17 37 -21 0 -4 7 -8 15 -8 9 0 35 -9
57 -20 23 -11 47 -20 54 -20 6 0 17 -6 23 -14 7 -8 30 -17 52 -21 22 -4 43
-13 45 -20 3 -7 22 -15 43 -19 21 -3 44 -13 51 -21 7 -8 23 -15 35 -15 13 0
25 -6 28 -14 3 -7 22 -17 43 -20 20 -4 43 -13 50 -21 8 -7 31 -16 53 -20 22
-3 42 -12 44 -19 3 -7 24 -16 46 -20 23 -3 41 -11 41 -16 0 -6 5 -10 11 -10 5
0 35 -11 65 -25 30 -14 61 -25 69 -25 8 0 15 -4 15 -8 0 -5 23 -15 50 -22 28
-7 50 -16 50 -20 0 -3 34 -19 75 -35 41 -15 75 -32 75 -37 0 -4 9 -8 20 -8 11
0 34 -8 52 -18 18 -10 45 -22 61 -26 15 -3 27 -10 27 -15 0 -5 18 -12 41 -16
22 -4 43 -13 45 -20 3 -7 25 -16 49 -19 24 -4 46 -13 49 -21 3 -8 16 -15 30
-15 13 0 26 -6 29 -14 3 -7 22 -17 43 -21 21 -3 55 -15 76 -26 20 -10 44 -19
53 -19 8 0 15 -4 15 -10 0 -5 12 -12 28 -16 23 -6 123 -48 174 -75 10 -5 25
-9 33 -9 8 0 15 -4 15 -8 0 -5 23 -15 50 -22 28 -7 50 -17 50 -21 0 -3 15 -9
33 -13 26 -5 29 -9 17 -17 -12 -8 -10 -10 10 -8 30 2 90 -19 90 -32 0 -5 11
-9 24 -9 14 0 28 -4 31 -10 3 -5 15 -10 26 -10 10 0 19 -4 19 -10 0 -5 7 -10
15 -10 8 0 32 -9 52 -20 21 -11 45 -20 54 -20 9 0 22 -6 28 -14 7 -8 30 -17
51 -21 21 -4 41 -13 44 -21 3 -8 16 -14 29 -14 14 0 30 -6 36 -14 7 -8 25 -18
41 -21 15 -3 45 -15 66 -26 21 -10 44 -19 52 -19 7 0 20 -6 28 -14 7 -8 32
-17 54 -21 22 -4 40 -11 40 -15 0 -5 17 -14 38 -19 21 -6 46 -17 57 -25 11 -9
28 -16 38 -16 9 0 17 -4 17 -8 0 -5 23 -15 50 -22 28 -7 50 -17 50 -22 0 -4 7
-8 16 -8 13 0 133 -52 186 -81 10 -5 25 -9 33 -9 8 0 15 -4 15 -10 0 -5 9 -10
20 -10 11 0 35 -9 55 -20 20 -11 42 -20 49 -20 7 0 19 -6 25 -14 7 -8 30 -17
51 -21 21 -4 44 -13 50 -20 6 -7 29 -16 50 -20 21 -4 41 -13 44 -21 3 -8 17
-14 31 -14 14 0 25 -5 25 -10 0 -6 20 -15 45 -22 25 -7 45 -15 45 -19 0 -4 23
-13 50 -20 28 -7 50 -16 50 -21 0 -4 20 -13 45 -19 24 -6 50 -17 56 -25 6 -8
20 -14 30 -14 11 0 19 -4 19 -8 0 -5 23 -15 50 -22 28 -7 50 -17 50 -22 0 -4
11 -8 24 -8 14 0 28 -5 31 -10 3 -6 15 -10 26 -10 10 0 19 -4 19 -10 0 -5 8
-10 17 -10 9 0 24 -6 32 -13 9 -8 35 -19 59 -26 23 -6 42 -16 42 -21 0 -6 9
-10 20 -10 11 0 35 -9 55 -20 20 -11 44 -20 54 -20 10 0 21 -6 24 -14 3 -8 24
-17 46 -21 22 -4 45 -13 51 -20 6 -7 29 -16 50 -20 21 -4 41 -13 44 -21 3 -8
16 -14 29 -14 14 0 30 -6 36 -14 7 -8 25 -18 41 -21 16 -4 47 -15 69 -26 22
-10 47 -19 56 -19 8 0 15 -4 15 -8 0 -5 19 -15 42 -22 24 -7 52 -18 63 -26 11
-8 28 -14 38 -14 10 0 16 -4 13 -8 -3 -5 17 -15 44 -22 28 -8 50 -16 50 -20 0
-4 23 -13 50 -20 28 -7 50 -17 50 -22 0 -4 9 -8 19 -8 11 0 26 -6 33 -13 7 -7
32 -18 56 -25 23 -7 42 -17 42 -22 0 -6 11 -10 24 -10 14 0 28 -5 31 -10 3 -6
15 -10 26 -10 10 0 19 -4 19 -10 0 -5 11 -10 25 -10 14 0 28 -6 31 -14 3 -8
24 -18 45 -21 22 -4 43 -13 45 -20 3 -7 25 -16 50 -20 24 -3 44 -10 44 -15 0
-5 12 -13 28 -16 15 -4 43 -15 62 -25 61 -31 129 -59 145 -59 8 0 15 -4 15 -9
0 -5 23 -15 50 -22 28 -7 50 -16 50 -21 0 -4 6 -8 13 -8 6 0 35 -12 62 -25 28
-14 56 -25 63 -25 6 0 12 -4 12 -10 0 -5 11 -10 24 -10 14 0 28 -4 31 -10 3
-5 15 -10 26 -10 10 0 19 -4 19 -10 0 -5 7 -10 15 -10 9 0 35 -9 57 -20 23
-11 48 -20 55 -20 8 0 16 -7 19 -15 4 -8 13 -15 22 -15 23 0 82 -23 82 -32 0
-4 10 -8 23 -8 12 0 36 -9 52 -20 17 -11 40 -20 53 -20 12 0 22 -6 22 -14 0
-9 16 -16 44 -20 24 -4 49 -13 56 -21 6 -7 29 -16 50 -20 21 -4 41 -13 44 -21
3 -8 16 -14 28 -14 13 0 37 -9 53 -20 17 -11 38 -20 48 -20 9 0 17 -4 17 -9 0
-5 14 -12 30 -16 17 -4 28 -10 25 -14 -2 -5 7 -6 20 -3 15 2 25 0 25 -7 0 -6
14 -11 30 -11 17 0 30 4 30 8 0 5 23 14 50 21 28 7 50 17 50 22 0 5 8 9 18 9
9 0 32 9 50 20 18 11 41 20 52 20 10 0 25 6 32 13 7 8 30 20 51 26 20 7 37 16
37 21 0 5 20 12 44 15 25 4 47 13 50 20 2 7 21 15 40 19 20 4 36 11 36 16 0 5
10 12 23 15 12 4 41 15 64 26 24 10 49 19 57 19 8 0 16 7 20 15 3 8 12 15 21
15 8 0 24 5 35 10 11 6 29 15 40 20 11 5 27 10 35 10 8 0 15 5 15 10 0 6 9 10
19 10 11 0 23 5 26 10 3 6 15 10 26 10 10 0 19 5 19 10 0 6 6 10 14 10 8 0 54
18 103 40 48 23 102 47 118 54 17 7 50 22 75 34 25 12 57 24 73 28 15 3 27 10
27 15 0 4 16 11 36 15 19 4 38 12 41 20 2 7 24 16 48 20 24 3 46 12 49 19 2 7
23 16 45 20 21 3 42 13 45 21 3 8 11 14 19 14 7 0 32 9 55 20 22 11 48 20 57
20 8 0 15 4 15 10 0 5 19 15 43 22 23 7 48 18 55 25 7 7 22 13 33 13 10 0 19
5 19 10 0 6 7 10 15 10 8 0 23 4 33 9 41 22 113 51 126 51 8 0 16 3 18 8 4 10
86 49 121 57 15 4 27 10 27 14 0 4 20 13 45 20 25 7 45 17 45 22 0 5 8 9 18 9
10 0 35 9 57 20 22 11 45 20 52 20 6 0 16 7 21 16 6 11 24 17 54 18 32 1 45 5
44 15 -1 9 14 18 39 24 22 6 44 16 48 23 4 8 14 14 21 14 7 0 31 9 54 20 22
11 48 20 57 20 8 0 15 4 15 10 0 5 19 15 43 21 23 7 49 18 58 26 8 7 23 13 32
13 9 0 17 5 17 10 0 6 7 10 15 10 8 0 23 4 33 9 42 23 113 51 127 51 8 0 15 5
15 10 0 6 8 10 19 10 10 0 24 6 30 14 6 8 32 19 56 25 25 6 45 15 45 19 0 4
20 14 45 21 25 7 45 17 45 22 0 5 8 9 18 9 10 0 34 9 55 19 20 10 48 22 62 25
14 4 25 11 25 16 0 5 16 12 35 16 19 3 39 12 45 19 6 8 29 16 50 20 21 4 41
13 44 21 3 8 11 14 19 14 7 0 32 9 55 20 22 11 48 20 57 20 8 0 15 4 15 8 0 5
19 15 43 23 23 7 48 19 55 26 7 7 22 13 33 13 10 0 19 5 19 10 0 6 9 10 19 10
11 0 23 4 26 10 3 5 15 10 26 10 10 0 19 4 19 8 0 5 23 15 50 22 28 7 50 17
50 22 0 4 8 8 19 8 10 0 24 6 30 14 6 8 32 19 56 25 25 6 45 15 45 20 0 5 18
12 41 16 22 4 43 13 46 21 3 8 13 14 22 14 9 0 34 9 55 19 21 11 51 23 66 26
16 3 34 13 41 21 6 8 19 14 29 14 10 0 23 6 29 14 7 8 30 17 52 21 22 4 43 13
46 21 3 8 13 14 22 14 9 0 34 9 55 21 21 11 47 18 57 16 12 -3 16 0 12 9 -3 9
2 14 15 14 12 0 24 5 27 10 3 6 14 10 24 10 10 0 24 7 31 15 6 7 31 17 56 21
24 3 42 9 39 13 -4 8 109 61 131 61 8 0 14 5 14 10 0 6 6 10 13 10 8 0 36 11
63 25 27 14 55 25 62 25 6 0 12 4 12 9 0 5 18 12 40 16 22 4 43 12 47 18 8 12
41 27 123 55 25 8 52 21 61 29 8 7 23 13 31 13 9 0 21 6 27 14 7 8 30 17 51
21 21 4 41 12 43 19 3 8 22 17 43 20 20 4 43 14 51 22 8 8 23 14 34 14 10 0
19 5 19 10 0 6 9 10 19 10 11 0 23 5 26 10 3 6 17 10 31 10 13 0 24 4 24 9 0
5 10 13 23 17 12 3 59 24 104 45 45 22 89 39 97 39 9 0 16 5 16 10 0 6 9 10
19 10 11 0 23 5 26 10 3 6 15 10 26 10 10 0 19 5 19 10 0 6 9 10 19 10 11 0
26 6 34 14 8 8 31 18 51 22 21 3 40 12 42 19 3 7 22 16 42 20 20 4 44 12 52
19 8 7 34 18 58 25 23 6 42 16 42 21 0 6 8 10 19 10 10 0 24 6 30 14 7 8 30
17 52 21 21 4 39 11 39 15 0 5 19 15 43 21 23 7 49 18 58 26 8 7 21 13 27 13
6 0 27 9 47 20 20 11 42 20 50 20 8 0 15 4 15 8 0 4 21 14 48 21 26 8 49 17
52 21 8 11 119 60 135 60 8 0 15 4 15 8 0 5 22 14 50 22 27 7 47 17 44 22 -3
4 4 8 15 8 11 0 26 6 34 14 7 8 33 20 55 27 23 7 42 16 42 20 0 5 16 11 35 15
19 3 39 12 45 19 6 8 26 17 43 21 18 3 37 11 44 16 24 19 88 48 120 54 l33 6
0 6169 0 6169 -28 0 c-15 0 -45 -9 -67 -20 -22 -11 -45 -20 -52 -20 -8 0 -16
-7 -19 -15 -4 -8 -14 -15 -24 -15 -9 0 -29 -9 -43 -20 -14 -11 -35 -20 -46
-20 -12 0 -21 -4 -21 -10 0 -5 -7 -10 -15 -10 -8 0 -23 -4 -33 -9 -46 -25
-150 -71 -174 -76 -16 -4 -28 -11 -28 -16 0 -5 -7 -9 -15 -9 -8 0 -23 -4 -33
-9 -42 -23 -113 -51 -127 -51 -8 0 -15 -4 -15 -10 0 -5 -7 -10 -15 -10 -8 0
-32 -9 -52 -20 -21 -11 -46 -20 -56 -20 -10 0 -20 -6 -23 -14 -3 -7 -22 -16
-43 -20 -21 -3 -44 -12 -51 -20 -6 -8 -31 -18 -55 -22 -24 -3 -46 -12 -49 -20
-3 -8 -14 -14 -24 -14 -11 0 -25 -6 -31 -14 -7 -8 -30 -17 -52 -21 -21 -4 -39
-11 -39 -16 0 -5 -20 -14 -45 -20 -24 -6 -50 -17 -56 -25 -6 -8 -18 -14 -25
-14 -8 0 -23 -4 -34 -10 -11 -5 -29 -14 -40 -20 -11 -5 -25 -10 -31 -10 -6 0
-17 -7 -25 -15 -9 -8 -24 -15 -34 -15 -10 0 -22 -5 -25 -10 -4 -6 -16 -8 -27
-4 -13 4 -18 2 -14 -4 3 -6 -7 -13 -24 -17 -16 -4 -30 -11 -30 -16 0 -5 -9 -9
-19 -9 -11 0 -23 -4 -26 -10 -3 -5 -15 -10 -26 -10 -10 0 -19 -4 -19 -10 0 -5
-7 -10 -15 -10 -8 0 -34 -9 -58 -19 -23 -11 -52 -22 -64 -26 -13 -3 -23 -10
-23 -16 0 -5 -18 -12 -41 -15 -22 -4 -43 -13 -46 -20 -2 -7 -22 -15 -43 -19
-21 -4 -44 -13 -50 -20 -6 -7 -29 -16 -50 -20 -21 -4 -44 -13 -51 -21 -6 -8
-18 -14 -25 -14 -7 0 -28 -9 -46 -20 -18 -11 -43 -20 -55 -20 -13 0 -23 -4
-23 -10 0 -5 -19 -15 -42 -21 -24 -7 -50 -18 -59 -26 -8 -7 -21 -13 -27 -13
-6 0 -27 -9 -47 -20 -20 -11 -44 -20 -55 -20 -11 0 -20 -4 -20 -10 0 -5 -7
-10 -15 -10 -8 0 -23 -4 -33 -9 -53 -29 -173 -81 -186 -81 -9 0 -16 -4 -16 -8
0 -5 -22 -14 -50 -22 -27 -7 -47 -17 -44 -22 3 -4 -6 -8 -19 -8 -14 0 -30 -6
-36 -14 -7 -8 -27 -18 -44 -22 -18 -4 -48 -15 -67 -25 -19 -11 -42 -19 -51
-19 -9 0 -22 -6 -28 -14 -6 -7 -26 -16 -43 -20 -17 -3 -38 -12 -46 -18 -14
-12 -25 -17 -113 -50 -20 -7 -43 -19 -50 -25 -8 -6 -31 -14 -51 -18 -20 -4
-39 -13 -42 -21 -3 -8 -14 -14 -25 -14 -11 0 -36 -9 -56 -20 -20 -11 -44 -20
-55 -20 -11 0 -20 -4 -20 -10 0 -5 -9 -10 -19 -10 -11 0 -23 -4 -26 -10 -3 -5
-15 -10 -26 -10 -10 0 -19 -4 -19 -10 0 -5 -5 -10 -11 -10 -6 0 -27 -7 -47
-16 -21 -9 -57 -25 -82 -36 -25 -11 -53 -24 -62 -29 -10 -5 -25 -9 -33 -9 -8
0 -15 -4 -15 -10 0 -5 -11 -10 -24 -10 -13 0 -29 -6 -35 -14 -6 -8 -32 -19
-56 -25 -25 -6 -45 -15 -45 -20 0 -5 -18 -12 -41 -16 -22 -4 -43 -13 -45 -20
-3 -8 -23 -16 -44 -20 -21 -4 -44 -12 -50 -20 -6 -7 -27 -16 -47 -20 -20 -3
-42 -13 -50 -21 -8 -8 -23 -14 -32 -14 -10 0 -24 -7 -31 -15 -7 -8 -30 -18
-51 -21 -21 -4 -40 -13 -43 -20 -3 -8 -11 -14 -19 -14 -7 0 -32 -9 -55 -20
-22 -11 -48 -20 -57 -20 -8 0 -15 -4 -15 -10 0 -5 -11 -10 -24 -10 -14 0 -28
-4 -31 -10 -3 -5 -15 -10 -25 -10 -10 0 -20 -3 -22 -7 -4 -10 -64 -39 -110
-53 -21 -6 -38 -15 -38 -19 0 -4 -22 -14 -50 -21 -27 -7 -50 -16 -50 -20 0 -3
-20 -11 -45 -18 -25 -7 -45 -16 -45 -22 0 -5 -11 -10 -24 -10 -14 0 -31 -6
-39 -14 -8 -8 -33 -19 -55 -26 -23 -6 -42 -15 -42 -20 0 -4 -18 -11 -39 -15
-22 -4 -45 -13 -51 -20 -6 -7 -29 -16 -50 -20 -21 -4 -41 -13 -44 -21 -3 -8
-16 -14 -29 -14 -14 0 -30 -6 -36 -14 -7 -8 -25 -18 -41 -21 -15 -3 -45 -15
-66 -26 -21 -10 -46 -19 -55 -19 -9 0 -19 -7 -23 -15 -3 -8 -14 -15 -25 -15
-11 0 -36 -9 -56 -20 -20 -11 -44 -20 -54 -20 -11 0 -21 -3 -23 -7 -5 -11 -93
-53 -111 -53 -9 0 -22 -6 -29 -13 -7 -7 -34 -20 -60 -27 -27 -8 -48 -17 -48
-20 0 -4 -22 -12 -50 -20 -27 -7 -47 -17 -44 -22 3 -4 -6 -8 -21 -8 -14 0 -28
-6 -31 -14 -3 -8 -23 -18 -45 -21 -22 -4 -45 -13 -53 -20 -7 -8 -30 -17 -50
-21 -21 -3 -40 -12 -43 -20 -2 -7 -24 -16 -48 -20 -24 -3 -46 -12 -49 -20 -3
-8 -12 -14 -21 -14 -8 0 -32 -9 -52 -20 -21 -11 -46 -20 -55 -20 -10 0 -18 -4
-18 -9 0 -4 -21 -14 -47 -21 -27 -8 -52 -19 -56 -27 -4 -7 -15 -13 -23 -13 -8
0 -23 -4 -34 -10 -11 -5 -29 -14 -40 -20 -11 -5 -27 -10 -35 -10 -8 0 -15 -4
-15 -10 0 -5 -7 -10 -15 -10 -9 0 -35 -9 -57 -20 -23 -11 -46 -20 -52 -20 -5
0 -17 -6 -25 -13 -9 -7 -35 -19 -58 -27 -24 -7 -43 -16 -43 -20 0 -3 -22 -12
-50 -19 -27 -7 -50 -16 -50 -19 0 -4 -15 -12 -32 -19 -18 -6 -54 -19 -80 -28
-27 -10 -48 -21 -48 -26 0 -5 -18 -12 -39 -15 -22 -4 -42 -12 -45 -19 -2 -7
-23 -16 -45 -20 -22 -4 -45 -13 -52 -21 -6 -8 -19 -14 -28 -14 -9 0 -31 -9
-49 -20 -41 -25 -87 -25 -140 0 -22 11 -48 20 -57 20 -9 0 -18 6 -21 14 -3 8
-25 17 -49 20 -24 4 -46 13 -48 20 -3 8 -22 16 -41 20 -20 4 -36 11 -36 16 0
4 -14 12 -32 15 -17 4 -47 16 -65 26 -19 11 -42 19 -53 19 -11 0 -20 4 -20 10
0 5 -20 15 -45 21 -25 6 -45 15 -45 19 0 4 -21 13 -47 21 -27 7 -54 19 -61 26
-7 7 -19 13 -26 13 -7 0 -31 9 -54 20 -22 11 -48 20 -57 20 -8 0 -15 5 -15 10
0 6 -7 10 -15 10 -8 0 -24 5 -35 10 -11 6 -29 15 -40 20 -11 6 -27 10 -35 10
-9 0 -18 7 -21 15 -4 8 -13 15 -22 15 -23 0 -82 23 -82 32 0 4 -8 8 -18 8 -10
0 -35 9 -57 20 -22 11 -44 20 -51 20 -6 0 -17 6 -23 14 -7 8 -30 17 -51 21
-21 4 -41 12 -43 19 -3 7 -23 16 -45 19 -22 4 -45 13 -51 21 -6 8 -28 17 -48
21 -20 3 -42 13 -50 21 -8 8 -23 14 -34 14 -10 0 -19 4 -19 9 0 5 -22 15 -50
22 -27 7 -50 16 -50 21 0 4 -7 8 -15 8 -13 0 -143 56 -187 80 -10 6 -25 10
-33 10 -8 0 -15 5 -15 10 0 6 -9 10 -20 10 -11 0 -35 9 -55 20 -20 11 -41 20
-47 20 -6 0 -19 6 -27 13 -9 8 -35 19 -58 26 -24 6 -43 16 -43 20 0 5 -17 11
-39 15 -21 3 -44 13 -51 21 -7 8 -23 15 -35 15 -13 0 -25 6 -28 14 -3 8 -24
17 -46 21 -22 4 -45 13 -51 20 -6 7 -29 16 -51 20 -21 4 -39 11 -39 16 0 5
-20 14 -45 20 -25 6 -45 15 -45 20 0 4 -16 11 -35 15 -19 3 -35 9 -35 13 0 4
-17 13 -37 20 -21 7 -57 21 -80 32 -24 10 -48 19 -54 19 -6 0 -17 7 -25 15 -9
8 -24 15 -35 15 -13 0 -18 4 -13 12 4 7 3 8 -5 4 -10 -7 -61 13 -143 55 -10 5
-25 9 -33 9 -8 0 -15 5 -15 10 0 6 -7 10 -15 10 -9 0 -35 9 -57 20 -23 11 -47
20 -54 20 -6 0 -17 6 -23 14 -7 8 -30 17 -51 21 -21 4 -44 13 -51 21 -6 8 -19
14 -29 14 -10 0 -23 6 -29 14 -7 8 -30 17 -51 21 -21 4 -44 13 -51 21 -6 8
-29 17 -50 20 -21 4 -40 13 -43 20 -3 8 -13 14 -22 14 -16 0 -53 15 -149 61
-22 10 -48 19 -57 19 -10 0 -18 4 -18 9 0 5 -20 15 -45 22 -25 7 -45 16 -45
20 0 4 -12 10 -27 14 -15 3 -46 15 -70 26 -23 10 -47 19 -52 19 -6 0 -11 5
-11 10 0 6 -9 10 -19 10 -11 0 -23 5 -26 10 -3 6 -17 10 -31 10 -13 0 -24 3
-24 8 0 4 -15 12 -32 19 -81 28 -110 41 -117 50 -3 6 -23 13 -43 17 -21 4 -43
12 -50 19 -12 11 -32 20 -114 51 -18 6 -38 17 -45 23 -8 6 -31 14 -51 18 -20
4 -39 13 -41 20 -3 6 -24 15 -46 19 -23 3 -41 11 -41 16 0 5 -19 14 -42 21
-23 6 -51 17 -62 25 -11 8 -28 14 -38 14 -10 0 -18 4 -18 8 0 5 -22 15 -50 22
-27 7 -50 17 -50 22 0 4 -7 8 -16 8 -13 0 -123 48 -186 81 -10 5 -25 9 -33 9
-8 0 -15 5 -15 10 0 6 -7 10 -15 10 -9 0 -35 9 -57 20 -23 11 -46 20 -52 20
-5 0 -17 6 -25 13 -9 8 -35 19 -58 26 -24 6 -43 16 -43 20 0 5 -17 11 -39 15
-21 3 -44 13 -51 21 -7 8 -23 15 -35 15 -13 0 -25 6 -28 14 -3 8 -24 17 -46
21 -22 4 -45 13 -51 20 -6 7 -29 16 -50 20 -21 4 -41 12 -43 19 -3 7 -23 16
-45 19 -22 4 -45 14 -52 22 -7 8 -23 15 -36 15 -13 0 -24 4 -24 8 0 5 -19 15
-42 22 -24 8 -45 17 -48 20 -3 3 -25 12 -50 20 -25 8 -51 20 -58 27 -7 7 -22
13 -33 13 -13 0 -18 4 -13 12 4 6 3 8 -3 5 -12 -8 -93 22 -93 35 0 4 -11 8
-24 8 -14 0 -28 5 -31 10 -3 6 -15 10 -26 10 -10 0 -19 5 -19 10 0 6 -11 10
-25 10 -14 0 -28 6 -31 14 -3 8 -23 17 -44 21 -21 4 -44 13 -50 20 -6 7 -29
16 -51 20 -22 4 -43 13 -46 21 -3 8 -15 14 -28 14 -13 0 -25 6 -28 14 -3 8
-26 18 -51 21 -25 4 -50 13 -56 20 -6 8 -25 17 -43 21 -17 3 -37 12 -43 19 -7
7 -30 16 -50 20 -20 3 -43 13 -51 21 -8 8 -23 14 -34 14 -10 0 -19 5 -19 10 0
6 -7 10 -15 10 -14 0 -85 28 -127 51 -10 5 -25 9 -33 9 -8 0 -15 4 -15 9 0 5
-13 12 -30 16 -16 4 -30 11 -30 16 0 6 -5 7 -10 4 -6 -4 -16 -2 -23 3 -7 5
-24 12 -39 16 -16 3 -28 11 -28 16 0 6 -7 10 -15 10 -15 0 -85 28 -135 55 -14
7 -44 18 -67 24 -24 7 -43 16 -43 21 0 6 -10 10 -22 10 -13 0 -38 9 -56 20
-18 11 -39 20 -47 20 -8 0 -32 9 -52 20 -21 11 -49 20 -63 20 -14 0 -34 7 -44
15 -11 8 -30 15 -43 15 l-23 0 0 -6207z m450 5582 c7 -8 23 -15 35 -15 12 0
28 -6 34 -14 7 -8 27 -18 44 -21 18 -4 39 -13 47 -20 8 -7 30 -16 49 -20 19
-4 41 -13 48 -20 7 -7 31 -16 53 -20 22 -4 40 -11 40 -15 0 -5 17 -14 38 -19
21 -6 46 -17 57 -25 11 -9 28 -16 38 -16 9 0 17 -4 17 -8 0 -5 23 -15 50 -22
28 -7 50 -17 50 -22 0 -4 7 -8 16 -8 8 0 48 -15 87 -34 40 -19 89 -40 110 -46
20 -6 37 -16 37 -21 0 -5 9 -9 20 -9 11 0 35 -9 55 -20 20 -11 44 -20 54 -20
10 0 21 -6 24 -14 3 -8 24 -17 46 -21 22 -4 45 -13 51 -20 6 -7 29 -16 50 -20
21 -4 41 -13 44 -21 3 -8 17 -14 31 -14 14 0 28 -6 31 -14 3 -8 20 -17 38 -20
18 -3 50 -15 71 -26 22 -11 45 -20 53 -20 7 0 20 -6 27 -14 8 -7 31 -17 51
-21 20 -3 43 -13 51 -21 8 -8 23 -14 34 -14 10 0 19 -4 19 -9 0 -5 10 -11 23
-13 12 -2 21 -8 20 -14 -1 -7 8 -9 22 -6 15 2 25 0 25 -7 0 -6 11 -11 24 -11
14 0 28 -4 31 -10 3 -5 15 -10 26 -10 10 0 19 -4 19 -10 0 -5 9 -10 19 -10 11
0 26 -7 35 -15 8 -8 20 -15 27 -15 7 0 33 -9 58 -21 25 -11 57 -25 71 -31 14
-6 33 -14 42 -19 10 -5 25 -9 33 -9 9 0 18 -6 21 -14 3 -7 22 -16 43 -20 21
-3 44 -12 50 -20 6 -8 28 -17 48 -21 20 -3 42 -13 50 -21 8 -8 23 -14 32 -14
10 0 24 -6 30 -14 7 -8 30 -17 51 -21 21 -4 44 -13 50 -20 6 -7 29 -16 50 -20
21 -4 41 -12 43 -19 3 -7 21 -16 41 -19 20 -3 43 -13 52 -21 8 -9 24 -16 35
-16 10 0 19 -4 19 -8 0 -5 23 -15 50 -22 28 -7 50 -17 50 -22 0 -4 7 -8 16 -8
8 0 48 -15 87 -34 40 -19 89 -39 110 -46 20 -6 37 -16 37 -21 0 -5 9 -9 20 -9
11 0 35 -9 55 -20 20 -11 42 -20 49 -20 7 0 19 -6 25 -14 7 -8 30 -17 51 -21
21 -4 41 -13 44 -21 3 -8 16 -14 29 -14 12 0 40 -9 61 -19 21 -11 51 -23 67
-26 16 -4 29 -11 29 -16 0 -5 11 -11 25 -15 14 -3 42 -15 62 -25 21 -10 45
-19 55 -19 10 0 18 -4 18 -10 0 -5 12 -13 28 -16 27 -7 81 -29 158 -65 22 -10
46 -19 52 -19 7 0 12 -4 12 -8 0 -5 23 -15 50 -22 28 -7 50 -17 50 -22 0 -4 7
-8 15 -8 9 0 35 -9 57 -20 23 -11 46 -20 52 -20 5 0 17 -6 25 -13 9 -7 35 -19
59 -27 23 -7 42 -17 42 -22 0 -4 11 -8 24 -8 13 0 29 -6 35 -14 7 -8 27 -18
44 -21 18 -4 39 -13 47 -20 8 -7 31 -16 50 -20 19 -4 42 -13 50 -20 8 -7 30
-16 48 -20 17 -3 32 -10 32 -15 0 -4 12 -11 28 -14 15 -4 45 -15 67 -26 91
-43 132 -60 148 -60 9 0 17 -4 17 -9 0 -4 21 -14 48 -22 26 -7 53 -19 60 -26
7 -7 22 -13 33 -13 10 0 19 -4 19 -8 0 -4 20 -14 45 -21 25 -7 45 -17 45 -22
0 -5 11 -9 24 -9 14 0 28 -4 31 -10 3 -5 15 -10 26 -10 10 0 19 -4 19 -10 0
-5 9 -10 19 -10 11 0 26 -7 35 -15 8 -8 19 -15 25 -15 6 0 33 -9 59 -21 26
-12 58 -26 72 -31 14 -6 33 -14 42 -19 10 -5 25 -9 33 -9 9 0 18 -6 21 -14 3
-8 25 -17 49 -20 24 -4 46 -13 48 -20 3 -8 24 -17 46 -21 23 -4 41 -11 41 -16
0 -5 11 -11 25 -15 14 -3 42 -15 62 -25 21 -10 45 -19 55 -19 10 0 18 -4 18
-8 0 -9 59 -32 82 -32 9 0 18 -6 21 -14 3 -8 24 -17 46 -21 23 -4 41 -11 41
-16 0 -5 5 -9 11 -9 5 0 35 -11 65 -25 30 -14 61 -25 69 -25 8 0 15 -4 15 -10
0 -5 7 -10 15 -10 9 0 35 -9 57 -20 23 -11 48 -20 55 -20 8 0 16 -6 19 -14 3
-7 23 -16 44 -20 21 -3 45 -13 54 -21 8 -8 22 -15 30 -15 8 0 30 -8 48 -18 18
-10 45 -22 61 -26 15 -3 27 -10 27 -15 0 -5 18 -12 41 -16 22 -4 43 -13 45
-20 3 -7 22 -15 43 -19 21 -3 44 -13 51 -21 7 -8 19 -15 27 -15 8 0 27 -7 41
-15 15 -8 45 -21 67 -29 79 -28 110 -41 123 -53 7 -7 21 -13 29 -13 14 0 111
-41 165 -71 10 -5 25 -9 33 -9 8 0 15 -4 15 -8 0 -5 23 -15 50 -22 28 -7 50
-17 50 -21 0 -3 14 -9 30 -12 l30 -6 0 -5807 c0 -3193 -3 -5804 -7 -5802 -85
39 -111 51 -128 58 -36 15 -100 42 -129 56 -16 8 -35 14 -41 14 -7 0 -18 7
-25 15 -7 8 -19 15 -27 15 -8 0 -33 9 -55 20 -23 11 -47 20 -54 20 -6 0 -17 7
-24 15 -7 8 -30 18 -51 21 -21 4 -40 12 -43 19 -2 7 -23 16 -45 20 -22 4 -45
12 -51 20 -6 7 -26 16 -45 19 -19 4 -35 11 -35 16 0 4 -15 11 -32 15 -18 4
-48 16 -66 26 -18 10 -42 19 -53 19 -11 0 -18 4 -15 8 3 5 -17 15 -44 22 -28
8 -50 17 -50 22 0 4 -5 8 -11 8 -5 0 -35 11 -65 25 -30 14 -61 25 -69 25 -8 0
-15 5 -15 10 0 6 -9 10 -19 10 -11 0 -23 5 -26 10 -3 6 -15 10 -26 10 -10 0
-19 4 -19 9 0 5 -12 11 -27 13 -16 2 -27 8 -26 15 2 7 -4 10 -12 7 -9 -4 -21
-2 -28 4 -6 5 -24 12 -39 16 -16 3 -28 11 -28 16 0 6 -8 10 -17 10 -16 0 -64
20 -148 61 -22 10 -48 19 -58 19 -10 0 -20 6 -23 14 -3 7 -22 16 -43 20 -21 3
-44 13 -51 21 -7 8 -20 15 -29 15 -9 0 -33 9 -54 20 -20 11 -43 20 -50 20 -7
0 -29 9 -50 20 -20 11 -44 20 -52 20 -8 0 -15 4 -15 8 0 5 -19 15 -42 22 -24
8 -45 17 -48 20 -3 3 -25 12 -50 20 -25 8 -51 20 -58 27 -7 7 -22 13 -33 13
-10 0 -19 5 -19 10 0 6 -7 10 -15 10 -14 0 -85 28 -127 51 -10 5 -25 9 -33 9
-8 0 -15 5 -15 10 0 6 -9 10 -19 10 -11 0 -26 6 -34 14 -8 8 -30 18 -50 21
-20 4 -41 13 -48 21 -6 8 -19 14 -28 14 -9 0 -34 9 -56 20 -22 11 -45 20 -52
20 -8 0 -16 7 -19 15 -3 8 -26 17 -50 21 -24 3 -44 10 -44 15 0 4 -19 14 -42
21 -24 6 -47 18 -51 25 -4 7 -18 13 -30 13 -12 0 -39 9 -60 20 -20 11 -44 20
-52 20 -8 0 -15 5 -15 10 0 6 -9 10 -19 10 -11 0 -23 4 -26 10 -3 6 -15 10
-26 10 -10 0 -19 4 -19 8 0 4 -21 14 -47 22 -27 7 -54 20 -61 27 -7 7 -22 13
-33 13 -11 0 -17 5 -14 10 3 6 -4 10 -16 10 -20 0 -80 23 -131 51 -10 5 -25 9
-33 9 -8 0 -15 5 -15 10 0 6 -7 10 -15 10 -8 0 -32 9 -52 20 -21 11 -45 20
-54 20 -9 0 -22 7 -29 15 -7 8 -20 15 -29 15 -9 0 -34 9 -56 20 -22 11 -45 20
-52 20 -8 0 -16 7 -19 15 -3 8 -25 17 -49 21 -24 3 -46 12 -49 19 -2 7 -23 16
-45 20 -22 4 -45 13 -52 21 -6 8 -19 14 -28 14 -9 0 -33 9 -54 20 -20 11 -44
20 -52 20 -8 0 -15 4 -15 8 0 5 -22 15 -50 22 -27 7 -50 17 -50 21 0 4 -20 13
-45 20 -25 7 -45 17 -45 21 0 4 -5 8 -11 8 -5 0 -35 11 -65 25 -30 14 -61 25
-69 25 -8 0 -15 5 -15 10 0 6 -7 10 -15 10 -8 0 -23 4 -33 9 -9 5 -30 14 -47
21 -16 7 -41 18 -55 25 -14 7 -42 18 -62 24 -21 7 -38 17 -38 22 0 5 -8 9 -18
9 -10 0 -35 9 -57 20 -22 11 -44 20 -51 20 -6 0 -17 7 -24 15 -7 8 -30 18 -51
21 -21 4 -40 12 -43 19 -2 7 -23 16 -45 20 -22 4 -45 13 -51 20 -6 7 -29 16
-51 20 -21 4 -39 11 -39 16 0 5 -20 14 -45 20 -24 6 -50 17 -56 25 -6 8 -22
14 -35 14 -13 0 -24 4 -24 9 0 5 -20 15 -45 22 -25 7 -45 16 -45 19 0 4 -22
13 -50 20 -27 7 -50 17 -50 21 0 4 -13 10 -30 14 -16 4 -30 11 -30 16 0 5 -7
9 -15 9 -14 0 -85 28 -127 51 -10 5 -25 9 -33 9 -8 0 -15 5 -15 10 0 6 -11 10
-25 10 -14 0 -28 6 -31 14 -3 7 -22 16 -43 20 -21 3 -44 12 -50 20 -6 8 -28
17 -48 21 -20 3 -42 13 -50 21 -8 8 -23 14 -34 14 -11 0 -22 6 -25 14 -3 8
-25 17 -50 21 -24 3 -44 10 -44 15 0 5 -19 15 -42 22 -24 7 -49 18 -56 25 -7
7 -21 13 -30 13 -10 0 -34 9 -55 20 -20 11 -44 20 -52 20 -8 0 -15 4 -15 8 0
4 -20 14 -45 21 -25 7 -45 16 -45 20 0 4 -22 14 -50 21 -27 7 -50 17 -50 21 0
4 -13 10 -30 14 -17 4 -30 10 -30 14 0 4 -22 14 -50 21 -27 7 -50 17 -50 22 0
4 -7 8 -15 8 -8 0 -24 5 -35 10 -11 6 -29 15 -40 20 -11 6 -27 10 -35 10 -9 0
-18 6 -21 14 -3 8 -23 17 -44 21 -21 4 -44 13 -51 21 -6 8 -19 14 -28 14 -9 0
-34 9 -56 20 -22 11 -44 20 -51 20 -6 0 -17 6 -23 14 -7 8 -28 17 -48 21 -20
3 -42 13 -50 20 -7 8 -30 17 -50 21 -20 4 -43 14 -52 23 -15 15 -16 493 -16
5809 0 3185 3 5792 6 5792 4 0 12 -7 19 -15z m15093 -5787 l-3 -5712 -37 -18
c-20 -10 -42 -18 -49 -18 -6 0 -17 -6 -23 -14 -6 -8 -32 -19 -56 -25 -25 -6
-45 -15 -45 -19 0 -4 -20 -13 -45 -20 -25 -7 -45 -16 -45 -21 0 -5 -18 -12
-39 -16 -22 -4 -45 -13 -52 -21 -6 -8 -19 -14 -29 -14 -10 0 -23 -7 -30 -15
-7 -8 -30 -18 -51 -21 -21 -4 -40 -12 -43 -19 -2 -7 -23 -16 -45 -20 -21 -3
-42 -13 -45 -21 -3 -8 -11 -14 -19 -14 -7 0 -32 -9 -55 -20 -22 -11 -48 -20
-57 -20 -8 0 -15 -4 -15 -8 0 -4 -17 -14 -37 -21 -50 -17 -107 -44 -111 -53
-2 -5 -10 -8 -18 -8 -7 0 -43 -13 -79 -30 -36 -16 -72 -30 -80 -30 -8 0 -15
-4 -15 -10 0 -5 -9 -10 -19 -10 -11 0 -26 -6 -34 -14 -8 -8 -33 -19 -55 -26
-23 -6 -42 -14 -42 -18 0 -4 -20 -13 -45 -20 -25 -7 -45 -16 -45 -21 0 -5 -18
-12 -39 -16 -22 -4 -45 -13 -52 -21 -6 -8 -20 -14 -30 -14 -9 0 -24 -7 -32
-15 -8 -7 -26 -17 -41 -21 -14 -3 -43 -15 -63 -25 -21 -10 -45 -19 -55 -19
-10 0 -21 -7 -24 -15 -4 -8 -12 -15 -20 -15 -8 0 -36 -9 -62 -21 -101 -45
-130 -58 -204 -93 -42 -20 -84 -36 -92 -36 -9 0 -16 -4 -16 -9 0 -5 -20 -15
-45 -22 -25 -7 -45 -17 -45 -21 0 -4 -9 -8 -19 -8 -11 0 -26 -7 -34 -15 -8 -7
-28 -17 -43 -21 -16 -4 -45 -15 -64 -26 -19 -10 -43 -18 -53 -18 -10 0 -20 -6
-23 -14 -3 -8 -23 -17 -44 -21 -21 -4 -44 -12 -50 -20 -6 -7 -26 -16 -44 -19
-19 -4 -39 -13 -46 -21 -7 -8 -18 -15 -24 -15 -7 0 -29 -9 -51 -20 -22 -11
-47 -20 -57 -20 -10 0 -21 -7 -24 -15 -4 -8 -14 -15 -23 -15 -9 0 -34 -9 -56
-20 -22 -11 -45 -20 -52 -20 -7 0 -13 -4 -13 -10 0 -5 -7 -10 -15 -10 -8 0
-23 -4 -33 -9 -9 -5 -28 -13 -42 -19 -14 -6 -63 -29 -110 -51 -47 -22 -98 -43
-113 -46 -15 -4 -27 -10 -27 -14 0 -4 -20 -13 -45 -20 -25 -7 -45 -17 -45 -22
0 -5 -7 -9 -15 -9 -8 0 -32 -9 -52 -20 -21 -11 -46 -20 -56 -20 -10 0 -20 -6
-23 -14 -3 -8 -23 -17 -44 -21 -21 -4 -44 -13 -50 -20 -6 -7 -29 -16 -50 -20
-21 -4 -41 -13 -44 -21 -3 -8 -14 -14 -24 -14 -11 0 -25 -6 -31 -14 -7 -8 -30
-17 -52 -21 -21 -4 -39 -11 -39 -15 0 -5 -19 -15 -42 -21 -24 -7 -50 -18 -59
-26 -8 -7 -23 -13 -32 -13 -9 0 -17 -4 -17 -10 0 -5 -9 -10 -19 -10 -11 0 -23
-4 -26 -10 -3 -5 -15 -10 -26 -10 -11 0 -27 -7 -35 -15 -9 -8 -33 -18 -55 -21
-21 -4 -36 -10 -33 -15 3 -5 -4 -9 -14 -9 -11 0 -25 -7 -32 -15 -7 -8 -21 -15
-31 -15 -10 0 -21 -4 -24 -10 -3 -5 -15 -10 -26 -10 -10 0 -19 -4 -19 -10 0
-5 -7 -10 -16 -10 -8 0 -52 -17 -97 -39 -45 -21 -95 -41 -110 -45 -15 -4 -25
-10 -23 -15 3 -5 -12 -11 -33 -15 -21 -3 -44 -12 -50 -20 -7 -8 -30 -17 -52
-21 -22 -4 -43 -13 -46 -21 -3 -8 -16 -14 -29 -14 -13 0 -24 -4 -24 -10 0 -5
-19 -15 -42 -21 -24 -7 -50 -18 -59 -26 -8 -7 -30 -16 -47 -19 -17 -4 -37 -13
-43 -20 -6 -8 -18 -14 -25 -14 -7 0 -29 -9 -49 -20 -20 -11 -44 -20 -55 -20
-11 0 -20 -4 -20 -10 0 -5 -5 -10 -10 -10 -6 0 -30 -9 -52 -20 -23 -11 -46
-20 -52 -20 -5 0 -17 -6 -25 -13 -9 -7 -35 -19 -58 -27 -24 -7 -43 -16 -43
-20 0 -3 -23 -12 -50 -19 -28 -7 -48 -17 -44 -22 3 -5 -3 -9 -13 -9 -10 0 -28
-6 -39 -14 -11 -8 -39 -19 -62 -25 -23 -7 -42 -16 -42 -21 0 -5 -16 -12 -35
-16 -19 -3 -39 -12 -45 -19 -6 -8 -29 -16 -51 -20 -22 -4 -43 -13 -46 -21 -3
-8 -13 -14 -22 -14 -15 0 -49 -15 -142 -62 -20 -10 -46 -18 -57 -18 -11 0 -22
-7 -26 -15 -3 -8 -12 -15 -19 -15 -8 0 -27 -6 -43 -14 -16 -8 -47 -21 -69 -31
-22 -9 -48 -21 -57 -26 -10 -5 -24 -9 -32 -9 -8 0 -16 -3 -18 -8 -1 -4 -34
-21 -73 -37 -38 -16 -72 -31 -75 -35 -3 -3 -24 -12 -47 -20 -24 -7 -43 -17
-43 -22 0 -4 -11 -8 -24 -8 -13 0 -29 -6 -35 -14 -7 -8 -27 -18 -44 -21 -18
-4 -46 -16 -63 -26 -17 -10 -41 -19 -53 -19 -12 0 -24 -6 -27 -14 -3 -8 -24
-18 -45 -21 -22 -4 -43 -13 -45 -20 -3 -8 -23 -16 -44 -20 -21 -4 -44 -13 -51
-21 -6 -8 -20 -14 -30 -14 -11 0 -19 -4 -19 -8 0 -9 -59 -32 -82 -32 -9 0 -18
-5 -20 -11 -2 -6 -19 -17 -38 -24 -85 -31 -105 -41 -112 -50 -4 -5 -9 2581
-10 5748 l-3 5757 32 6 c18 3 37 12 44 20 6 8 17 14 23 14 7 0 31 9 54 20 22
11 48 20 57 20 8 0 15 5 15 10 0 6 7 10 16 10 9 0 38 11 66 25 27 14 56 25 64
25 8 0 14 5 14 11 0 7 10 9 26 5 17 -5 23 -3 19 4 -3 5 1 10 9 10 8 0 21 6 28
13 7 6 29 18 48 25 19 8 58 23 85 34 28 11 64 25 81 32 18 6 38 17 46 24 8 6
30 15 49 18 19 4 37 13 41 19 4 7 24 16 44 20 20 3 43 13 51 21 8 8 23 14 33
14 10 0 22 5 25 10 3 6 15 10 26 10 10 0 19 5 19 10 0 6 11 10 24 10 13 0 26
6 29 14 3 8 26 18 51 21 24 4 47 13 50 21 3 8 15 14 26 14 11 0 20 4 20 8 0 5
22 15 50 22 27 7 50 17 50 22 0 4 7 8 15 8 8 0 23 4 33 9 51 27 151 69 175 75
15 4 27 11 27 16 0 6 7 10 15 10 15 0 75 24 150 61 22 10 47 19 56 19 9 0 22
7 29 15 7 8 27 17 46 21 18 3 38 12 44 19 6 8 29 16 50 20 21 4 41 13 44 21 3
8 12 14 21 14 8 0 23 4 33 9 9 5 28 13 42 19 14 5 46 19 72 31 26 12 53 21 59
21 6 0 17 7 25 15 9 8 24 15 35 15 10 0 19 5 19 10 0 6 7 10 15 10 8 0 23 4
33 9 42 23 113 51 127 51 8 0 15 5 15 10 0 6 8 10 18 10 10 0 26 6 37 14 11 7
38 19 60 26 22 7 42 16 45 19 3 4 24 13 48 19 23 7 42 17 42 22 0 4 18 11 39
15 22 4 45 13 52 21 6 8 20 14 30 14 9 0 24 6 32 14 8 8 30 18 50 21 20 4 42
13 48 21 6 8 29 17 50 20 21 4 40 13 43 20 3 8 13 14 22 14 9 0 35 9 58 19 93
44 137 61 151 61 8 0 15 4 15 8 0 7 18 16 105 52 11 4 41 17 67 29 26 12 55
21 63 21 8 0 15 5 15 10 0 6 8 10 19 10 10 0 24 7 31 15 7 8 19 15 26 15 7 0
37 11 66 24 29 13 65 26 81 30 15 3 27 11 27 16 0 6 8 10 18 10 10 0 34 9 55
19 20 10 48 22 62 25 14 4 25 10 25 15 0 5 13 12 29 16 16 3 46 15 67 26 21
10 48 19 60 19 12 0 24 6 27 14 3 7 22 17 43 20 20 4 43 14 51 22 8 8 23 14
34 14 10 0 19 5 19 10 0 6 9 10 19 10 11 0 23 5 26 10 3 6 17 10 31 10 13 0
24 4 24 9 0 5 17 15 38 22 20 6 46 18 57 25 11 8 27 14 37 14 10 0 18 4 18 8
0 5 23 15 50 22 28 7 50 17 50 22 0 4 9 8 19 8 11 0 23 5 26 10 3 6 15 10 26
10 10 0 19 5 19 10 0 6 7 10 15 10 8 0 32 9 52 20 21 11 45 20 55 20 9 0 23 6
30 13 7 7 32 19 56 26 23 8 42 17 42 21 0 4 17 10 39 14 21 3 44 13 51 21 7 8
20 15 30 15 10 0 23 6 29 14 7 8 30 17 51 21 21 4 44 13 50 20 6 7 29 16 50
20 21 4 41 13 44 21 3 8 11 14 19 14 7 0 32 9 55 20 22 11 47 20 55 20 8 0 20
7 27 15 6 7 31 17 56 21 24 3 41 10 38 15 -3 5 8 12 25 15 17 4 31 10 31 15 0
5 7 9 15 9 8 0 23 4 33 9 42 23 113 51 127 51 8 0 15 5 15 10 0 6 9 10 19 10
11 0 26 6 34 14 8 8 31 18 51 22 21 3 40 13 43 20 3 8 12 14 21 14 22 0 82 23
82 31 0 4 18 10 39 14 22 4 45 13 52 21 6 8 20 14 30 14 9 0 25 7 33 16 9 8
32 18 51 21 19 3 40 12 46 19 6 8 29 17 50 20 21 4 40 13 43 20 3 8 14 14 25
14 11 0 23 5 26 10 3 6 15 10 26 10 10 0 19 5 19 10 0 6 11 10 25 10 14 0 25
4 25 8 0 9 59 32 83 32 9 0 17 4 17 8 0 5 19 16 43 26 23 9 50 21 59 27 10 5
25 9 33 9 8 0 15 4 15 8 0 5 23 15 50 22 28 7 50 17 50 22 0 4 9 8 19 8 11 0
26 7 34 15 8 7 28 17 43 21 16 4 45 15 64 26 19 10 42 18 50 18 9 0 21 5 28
12 7 7 27 17 44 24 18 6 33 12 33 13 0 0 -1 -2569 -2 -5711z"/>
<path d="M22925 28608 c-93 -6 -171 -11 -173 -12 -1 -2 4 -72 12 -157 32 -331
39 -649 34 -1571 l-4 -908 163 0 162 0 -2 693 -2 692 70 47 c143 96 305 143
470 135 211 -10 321 -91 372 -277 29 -106 22 -749 -13 -1207 l-7 -83 174 0
174 0 -2 682 c-1 750 -3 766 -62 891 -56 117 -176 205 -340 249 -110 29 -334
29 -446 -1 -105 -28 -243 -95 -328 -159 -37 -29 -71 -52 -74 -52 -3 0 -3 236
1 525 4 289 3 524 -1 523 -4 0 -84 -5 -178 -10z"/>
<path d="M24970 28495 c-52 -16 -103 -62 -132 -119 -30 -59 -23 -177 14 -233
40 -61 101 -87 187 -81 141 10 221 99 221 243 -1 152 -133 238 -290 190z"/>
<path d="M19165 28364 c13 -73 116 -369 447 -1289 180 -501 302 -889 328
-1042 l12 -73 122 0 123 0 13 73 c19 109 104 399 245 832 201 620 325 1047
325 1122 0 52 19 17 45 -84 42 -162 140 -453 305 -903 224 -613 320 -914 320
-1006 l0 -34 128 0 127 0 13 65 c24 125 154 504 451 1313 214 580 341 969 341
1040 0 22 0 22 -174 22 l-174 0 -7 -52 c-18 -135 -101 -434 -260 -943 -178
-570 -256 -855 -274 -997 -9 -70 -11 -67 -36 47 -24 110 -129 453 -285 935
-152 470 -252 805 -277 925 l-18 85 -167 0 c-158 0 -168 -1 -168 -19 0 -50
-94 -369 -255 -861 -188 -575 -283 -910 -308 -1087 l-13 -88 -13 80 c-30 196
-114 498 -327 1175 -101 320 -190 623 -224 758 l-11 42 -180 0 -181 0 7 -36z"/>
<path d="M760 21965 c0 -5271 2 -6395 13 -6395 7 0 32 -9 55 -20 22 -11 48
-20 57 -20 8 0 15 -4 15 -10 0 -5 7 -10 15 -10 8 0 23 -4 33 -9 40 -21 149
-69 169 -76 13 -3 23 -11 23 -16 0 -5 11 -9 24 -9 14 0 28 -4 31 -10 3 -5 15
-10 26 -10 10 0 19 -4 19 -10 0 -5 8 -10 19 -10 10 0 24 -7 31 -15 7 -8 30
-18 51 -21 21 -4 40 -12 43 -19 2 -7 23 -16 45 -20 21 -3 42 -13 45 -21 3 -8
17 -14 31 -14 14 0 28 -6 31 -14 3 -8 21 -17 40 -21 20 -3 50 -15 67 -26 18
-10 42 -19 53 -19 12 0 24 -7 28 -15 3 -8 13 -15 21 -15 9 0 54 -18 101 -40
47 -22 92 -40 100 -40 8 0 14 -4 14 -10 0 -5 9 -10 19 -10 11 0 23 -5 26 -10
3 -6 15 -10 26 -10 10 0 19 -4 19 -9 0 -5 14 -11 31 -15 20 -4 28 -10 23 -17
-4 -7 -3 -9 3 -6 12 8 86 -18 91 -32 2 -6 14 -11 27 -11 13 0 27 -4 30 -10 3
-5 15 -10 26 -10 10 0 19 -4 19 -10 0 -5 9 -10 19 -10 11 0 26 -6 34 -14 8 -8
31 -18 51 -22 21 -3 40 -12 43 -20 2 -7 22 -15 43 -19 21 -4 44 -13 51 -21 6
-8 19 -14 29 -14 10 0 23 -6 29 -14 7 -8 25 -18 41 -21 15 -3 45 -15 66 -26
21 -10 47 -19 57 -19 10 0 16 -4 12 -9 -5 -9 53 -31 83 -31 6 0 12 -4 12 -10
0 -5 17 -14 38 -20 20 -6 46 -17 56 -25 11 -8 28 -15 38 -15 10 0 18 -4 18
-10 0 -5 7 -10 15 -10 8 0 23 -4 33 -9 9 -5 37 -18 62 -29 25 -10 64 -27 88
-37 23 -11 42 -22 42 -27 0 -4 9 -8 20 -8 11 0 34 -8 52 -18 18 -10 52 -24 76
-32 23 -7 42 -17 42 -22 0 -4 11 -8 24 -8 13 0 26 -6 29 -14 3 -7 23 -17 44
-21 21 -3 45 -12 53 -20 8 -7 28 -15 44 -19 15 -4 35 -14 43 -21 8 -8 23 -15
34 -15 10 0 19 -4 19 -10 0 -5 17 -14 38 -19 20 -6 55 -20 77 -31 21 -11 47
-20 57 -20 10 0 18 -4 18 -8 0 -5 19 -15 43 -22 23 -8 49 -20 58 -27 8 -7 23
-13 32 -13 9 0 17 -4 17 -8 0 -4 20 -14 45 -21 25 -7 45 -17 45 -22 0 -5 11
-9 24 -9 14 0 28 -4 31 -10 3 -5 15 -10 25 -10 10 0 20 -3 22 -7 4 -10 64 -39
111 -53 20 -6 37 -15 37 -19 0 -3 20 -13 45 -20 25 -7 45 -17 45 -22 0 -5 11
-9 25 -9 14 0 28 -7 31 -15 4 -8 15 -15 26 -15 10 0 17 -4 14 -9 -4 -5 3 -7
14 -4 12 3 28 -1 38 -10 9 -8 31 -18 49 -22 17 -3 37 -13 44 -21 6 -8 17 -14
24 -14 8 0 26 -7 42 -15 53 -28 144 -65 158 -65 8 0 15 -4 15 -9 0 -4 20 -14
45 -21 24 -7 50 -19 56 -26 6 -8 20 -14 30 -14 11 0 19 -4 19 -8 0 -4 20 -14
45 -21 25 -7 45 -16 45 -20 0 -4 23 -14 50 -21 28 -7 50 -17 50 -22 0 -4 8 -8
17 -8 9 0 24 -6 32 -13 9 -8 35 -19 59 -26 23 -6 42 -16 42 -21 0 -6 7 -10 15
-10 8 0 24 -5 35 -10 11 -5 29 -14 40 -20 11 -5 27 -10 35 -10 9 0 18 -6 21
-14 3 -8 23 -17 44 -21 21 -4 41 -12 43 -19 3 -7 23 -16 45 -19 22 -4 45 -13
51 -21 6 -8 27 -17 46 -20 19 -4 35 -11 35 -16 0 -4 14 -12 32 -15 17 -4 45
-16 62 -26 17 -10 39 -19 49 -19 9 0 17 -4 17 -10 0 -5 20 -15 45 -21 25 -6
45 -15 45 -20 0 -5 7 -9 16 -9 9 0 37 -11 63 -24 73 -38 140 -66 156 -66 8 0
15 -4 15 -10 0 -5 8 -10 18 -10 10 0 22 -4 28 -9 5 -4 30 -16 57 -26 26 -10
47 -21 47 -24 0 -4 20 -13 45 -20 25 -7 45 -17 45 -22 0 -5 11 -9 24 -9 14 0
31 -7 40 -15 8 -8 29 -18 46 -22 18 -3 34 -11 36 -18 3 -7 22 -15 43 -19 21
-3 44 -12 50 -20 6 -8 28 -17 48 -21 20 -3 42 -13 50 -21 8 -8 22 -14 31 -14
9 0 31 -9 47 -20 17 -11 38 -20 48 -20 9 0 17 -4 17 -10 0 -5 20 -15 45 -21
25 -6 45 -14 45 -18 0 -4 21 -13 48 -21 26 -7 53 -20 60 -27 7 -7 20 -13 28
-13 8 0 14 -4 14 -10 0 -5 11 -10 24 -10 14 0 28 -4 31 -10 3 -5 15 -10 26
-10 10 0 19 -4 19 -10 0 -5 7 -10 15 -10 8 0 23 -4 33 -9 9 -6 36 -18 60 -27
23 -10 42 -21 42 -26 0 -4 7 -8 15 -8 16 0 87 -29 147 -61 20 -10 43 -19 51
-19 8 0 20 -6 26 -14 7 -8 27 -17 45 -20 19 -4 39 -13 45 -20 7 -8 28 -17 48
-21 20 -3 42 -13 50 -21 8 -8 23 -14 34 -14 10 0 19 -5 19 -12 0 -6 3 -8 6 -5
4 3 16 0 28 -8 11 -8 28 -15 38 -15 10 0 18 -4 18 -9 0 -5 23 -15 50 -22 28
-7 50 -16 50 -21 0 -4 5 -8 11 -8 9 0 129 -54 181 -81 10 -5 25 -9 33 -9 8 0
15 -4 15 -10 0 -5 7 -10 15 -10 8 0 23 -4 33 -9 9 -6 36 -18 59 -27 24 -10 43
-21 43 -25 0 -4 18 -10 41 -14 22 -4 43 -13 46 -21 3 -10 22 -14 57 -14 51 0
53 1 74 41 12 22 22 47 22 55 0 8 5 14 10 14 6 0 10 9 10 20 0 11 9 35 20 55
11 20 20 41 20 47 0 6 7 19 15 28 9 10 18 40 22 69 5 47 4 51 -15 51 -21 0
-72 19 -82 30 -3 3 -24 12 -47 18 -24 7 -43 17 -43 22 0 6 -11 10 -24 10 -13
0 -26 6 -29 14 -3 8 -24 17 -46 21 -22 4 -45 12 -51 20 -6 7 -26 16 -44 19
-19 4 -39 13 -45 20 -7 8 -27 17 -46 20 -19 4 -35 11 -35 16 0 5 -15 12 -34
16 -19 3 -37 12 -40 19 -2 7 -23 16 -45 20 -23 4 -41 10 -41 15 0 4 -20 13
-45 20 -24 7 -50 19 -56 26 -6 8 -20 14 -30 14 -11 0 -19 5 -19 10 0 6 -7 10
-15 10 -8 0 -44 14 -80 30 -36 17 -72 30 -80 30 -8 0 -15 5 -15 10 0 6 -8 10
-17 10 -9 0 -24 6 -32 13 -9 7 -35 19 -58 27 -24 7 -43 17 -43 22 0 4 -8 8
-18 8 -10 0 -35 9 -57 20 -22 11 -45 20 -52 20 -8 0 -16 6 -19 14 -3 8 -23 17
-44 21 -21 4 -44 12 -50 20 -6 7 -26 16 -44 19 -19 4 -39 13 -45 20 -7 8 -27
17 -46 20 -19 4 -35 11 -35 16 0 5 -16 12 -35 16 -19 3 -35 10 -35 14 0 4 -19
13 -42 21 -24 7 -49 19 -56 26 -7 7 -20 13 -28 13 -8 0 -50 16 -92 36 -42 20
-93 43 -112 51 -19 8 -43 19 -52 24 -10 5 -25 9 -33 9 -8 0 -15 5 -15 10 0 6
-7 10 -15 10 -8 0 -24 5 -35 10 -11 6 -29 15 -40 20 -11 6 -26 10 -34 10 -8 0
-16 7 -20 15 -3 8 -14 15 -24 15 -10 0 -35 9 -57 20 -22 11 -44 20 -51 20 -6
0 -17 7 -24 15 -7 8 -27 17 -46 21 -18 3 -38 12 -44 19 -6 8 -29 16 -50 20
-21 4 -41 12 -43 19 -3 8 -22 16 -41 20 -20 4 -36 10 -36 15 0 4 -19 14 -42
21 -24 7 -52 18 -63 26 -11 8 -27 14 -37 14 -10 0 -18 4 -18 9 0 4 -20 14 -45
21 -25 7 -45 17 -45 21 0 5 -4 9 -9 9 -5 0 -22 5 -38 12 -15 6 -30 12 -33 12
-6 2 -100 45 -122 57 -10 5 -25 9 -33 9 -8 0 -15 4 -15 9 0 5 -14 11 -31 15
-17 3 -28 10 -25 15 3 5 -2 7 -13 4 -10 -3 -22 0 -25 6 -4 6 -16 11 -27 11
-11 0 -22 7 -25 15 -4 8 -13 15 -22 15 -15 0 -65 20 -147 61 -22 10 -45 19
-51 19 -6 0 -17 6 -23 14 -7 8 -30 17 -51 21 -21 4 -41 12 -43 19 -3 8 -22 17
-43 20 -20 4 -43 14 -51 22 -8 8 -22 14 -31 14 -9 0 -30 9 -47 20 -16 11 -38
20 -47 20 -10 0 -18 4 -18 9 0 5 -22 15 -50 22 -27 7 -50 16 -50 21 0 4 -5 8
-11 8 -6 0 -33 11 -61 25 -27 14 -56 25 -64 25 -8 0 -14 5 -14 10 0 6 -9 10
-19 10 -11 0 -23 5 -26 10 -3 6 -15 10 -26 10 -10 0 -19 5 -19 10 0 6 -7 10
-15 10 -8 0 -23 4 -33 9 -9 6 -36 18 -59 27 -24 10 -43 21 -43 25 0 4 -18 10
-39 14 -22 4 -45 13 -52 21 -6 8 -19 14 -28 14 -9 0 -31 9 -49 20 -18 11 -39
20 -46 20 -7 0 -19 6 -25 14 -7 8 -30 17 -52 21 -21 4 -39 11 -39 15 0 5 -19
15 -42 21 -24 7 -47 18 -53 24 -5 7 -27 15 -47 19 -21 4 -38 11 -38 16 0 5
-10 12 -23 15 -23 7 -44 16 -140 59 -32 14 -62 26 -68 26 -6 0 -17 7 -25 15
-9 8 -24 15 -35 15 -10 0 -19 4 -19 8 0 4 -20 14 -45 21 -25 7 -45 17 -45 22
0 5 -7 9 -15 9 -8 0 -24 5 -35 10 -11 6 -29 15 -40 20 -11 6 -26 10 -34 10 -7
0 -19 6 -25 14 -7 8 -27 18 -44 21 -18 4 -39 13 -47 20 -8 7 -29 16 -47 20
-17 3 -37 13 -44 21 -6 8 -19 14 -29 14 -10 0 -23 6 -29 14 -7 8 -30 17 -51
21 -21 4 -44 13 -50 20 -6 8 -26 17 -43 20 -18 4 -39 13 -47 20 -8 7 -30 16
-47 20 -18 3 -33 10 -33 15 0 5 -10 12 -23 15 -12 4 -41 15 -64 26 -24 10 -50
19 -58 19 -8 0 -15 4 -15 9 0 5 -20 15 -45 22 -25 7 -45 17 -45 20 0 4 -14 10
-30 14 -18 4 -27 11 -24 17 4 6 3 8 -3 5 -5 -3 -22 1 -37 9 -16 7 -35 14 -42
14 -8 0 -14 5 -14 10 0 6 -7 10 -15 10 -16 0 -84 29 -146 61 -20 10 -43 19
-52 19 -8 0 -20 6 -26 14 -7 8 -27 17 -45 20 -19 4 -39 13 -46 21 -7 8 -21 15
-31 15 -9 0 -24 6 -32 14 -8 8 -30 18 -50 21 -20 4 -38 13 -41 20 -2 7 -23 16
-45 20 -23 4 -41 11 -41 16 0 5 -20 14 -45 20 -25 6 -45 15 -45 20 0 4 -19 13
-42 20 -23 6 -51 17 -62 25 -11 8 -28 14 -38 14 -10 0 -18 4 -18 9 0 5 -20 15
-45 22 -25 7 -45 17 -45 21 0 4 -7 8 -16 8 -15 0 -124 49 -134 60 -3 3 -24 12
-48 20 -23 7 -42 17 -42 22 0 4 -9 8 -20 8 -11 0 -35 9 -55 20 -20 11 -42 20
-51 20 -8 0 -17 6 -20 14 -3 7 -23 16 -44 20 -21 3 -45 12 -52 20 -8 7 -29 17
-48 21 -19 4 -40 14 -48 21 -7 8 -19 14 -25 14 -9 0 -12 1458 -12 6247 l0
6248 -202 3 -203 2 0 -6395z"/>
<path d="M25995 28254 c-60 -7 -117 -13 -126 -13 -18 -1 -22 -37 -35 -375 l-7
-159 -158 6 -159 6 0 -102 c0 -56 -3 -119 -7 -140 l-6 -39 157 7 156 8 0 -459
c0 -469 6 -577 41 -711 49 -194 155 -300 338 -339 103 -22 298 -17 401 9 l85
22 6 60 c4 33 9 91 13 129 l7 69 -33 -7 c-138 -30 -192 -35 -259 -26 -181 26
-252 104 -290 320 -13 78 -24 724 -14 846 l7 87 269 -7 269 -7 0 93 c0 51 3
117 7 147 l6 54 -34 -6 c-19 -4 -141 -9 -271 -13 l-238 -7 0 44 c0 40 9 190
26 427 l7 92 -24 -1 c-13 -1 -73 -7 -134 -15z"/>
<path d="M27799 27800 c-134 -21 -260 -82 -379 -184 -75 -64 -70 -67 -90 72
-12 85 -15 92 -36 92 -28 0 -308 -40 -312 -45 -2 -2 5 -57 17 -122 68 -392 75
-684 34 -1520 l-6 -133 174 0 174 0 -3 689 -3 688 53 47 c65 57 187 120 265
136 77 16 253 8 318 -15 114 -40 170 -103 202 -230 29 -113 23 -706 -13 -1222
l-7 -93 174 0 174 0 -3 688 -4 688 44 36 c80 65 172 119 241 140 58 17 86 20
180 16 223 -10 319 -76 364 -251 29 -117 23 -697 -14 -1224 l-6 -93 174 0 174
0 -2 680 c-2 757 -3 774 -68 906 -77 158 -235 240 -500 259 -193 14 -364 -43
-550 -183 -47 -35 -87 -63 -89 -61 -1 2 -17 25 -35 51 -59 83 -167 145 -301
172 -96 19 -269 27 -341 16z"/>
<path d="M30622 27799 c-115 -8 -243 -28 -362 -55 l-66 -15 -16 -132 c-9 -73
-15 -133 -13 -135 1 -1 44 7 94 18 216 48 525 64 678 35 43 -8 107 -29 143
-47 53 -27 70 -42 96 -85 37 -62 54 -139 54 -244 l0 -77 -107 -6 c-548 -31
-803 -120 -946 -333 -80 -118 -112 -268 -88 -409 31 -176 130 -292 308 -361
55 -21 91 -26 189 -31 242 -10 441 44 600 161 l61 45 7 -67 c11 -118 -4 -109
164 -103 81 2 149 6 151 8 2 2 -4 57 -13 122 -29 208 -36 414 -25 747 20 545
-1 666 -135 800 -141 141 -381 192 -774 164z m602 -1015 c3 -26 6 -139 6 -251
l0 -203 -59 -39 c-173 -111 -494 -143 -651 -63 -35 18 -65 42 -85 71 -28 41
-30 48 -30 139 0 106 14 146 75 216 98 111 311 173 611 175 l126 1 7 -46z"/>
<path d="M32863 27801 c-159 -26 -325 -104 -449 -213 -19 -17 -37 -29 -39 -26
-2 2 -12 52 -21 111 -15 100 -18 107 -39 107 -28 0 -309 -40 -313 -45 -2 -2 5
-57 17 -122 66 -382 76 -807 34 -1540 l-6 -113 176 0 175 0 -1 692 -2 692 50
38 c120 91 244 137 390 145 171 9 297 -30 378 -116 54 -57 82 -129 98 -248 17
-127 4 -672 -27 -1110 l-7 -93 174 0 174 0 -2 682 c-2 750 -3 767 -62 891 -57
120 -180 208 -343 247 -93 22 -278 33 -355 21z"/>
<path d="M24972 27755 c-90 -12 -166 -25 -169 -28 -3 -3 2 -57 11 -119 34
-239 40 -365 41 -808 0 -245 -4 -534 -8 -642 l-9 -198 172 0 171 0 -8 193
c-10 244 -10 1319 0 1495 l7 132 -22 -1 c-13 -1 -96 -11 -186 -24z"/>
<path d="M26021 23719 c-79 -5 -146 -10 -148 -13 -3 -2 0 -53 6 -113 29 -306
36 -514 36 -1203 0 -393 -3 -849 -8 -1012 l-7 -298 171 0 172 0 -7 38 c-11 67
-20 902 -10 902 27 0 119 -72 207 -162 176 -180 521 -604 589 -724 l30 -54
219 0 c257 0 248 -6 169 108 -165 240 -603 729 -819 913 l-63 55 58 39 c267
176 734 587 734 645 0 19 -5 20 -208 20 l-207 0 -25 -47 c-60 -115 -617 -643
-678 -643 -13 0 -14 80 -9 753 4 413 9 764 13 780 7 31 28 30 -215 16z"/>
<path d="M19850 23518 c-195 -5 -356 -11 -358 -12 -1 -2 2 -115 8 -252 13
-326 13 -1510 -1 -1878 -5 -158 -7 -291 -4 -295 4 -3 196 -6 428 -6 363 0 435
2 514 18 508 98 763 342 763 732 0 299 -150 498 -430 570 -36 9 -71 19 -79 21
-7 2 20 21 60 41 50 24 96 58 140 102 99 100 142 203 155 371 22 293 -127 488
-426 559 -79 19 -316 43 -385 39 -16 0 -190 -5 -385 -10z m607 -275 c128 -42
205 -109 244 -212 17 -47 20 -72 17 -156 -3 -83 -8 -108 -30 -151 -71 -136
-216 -200 -510 -224 -129 -11 -351 -11 -361 0 -3 4 -25 737 -22 747 3 10 215
21 385 19 185 -3 224 -6 277 -23z m-102 -1018 c348 -52 517 -193 518 -435 1
-260 -147 -389 -500 -435 -113 -15 -433 -20 -504 -9 l-36 6 -6 87 c-4 47 -10
243 -13 434 -6 295 -5 350 7 358 24 15 423 11 534 -6z"/>
<path d="M22315 22925 c-145 -27 -279 -89 -398 -185 -253 -203 -372 -501 -354
-885 15 -336 137 -563 386 -723 154 -99 355 -143 554 -122 122 13 195 32 295
80 104 50 157 86 244 169 128 120 207 256 255 440 34 129 44 398 19 537 -34
199 -116 357 -248 479 -200 185 -476 262 -753 210z m255 -246 c184 -42 330
-217 402 -480 30 -112 33 -355 4 -464 -83 -314 -269 -485 -529 -485 -195 0
-350 103 -452 302 -166 321 -126 752 92 988 123 133 293 182 483 139z"/>
<path d="M24467 22930 c-314 -57 -581 -271 -696 -560 -62 -156 -92 -402 -72
-585 16 -144 36 -217 91 -330 119 -248 367 -415 659 -445 450 -47 866 241 976
675 73 288 48 608 -67 827 -96 185 -304 347 -518 402 -75 20 -300 29 -373 16z
m263 -260 c191 -56 345 -274 390 -553 16 -97 8 -311 -15 -397 -59 -224 -200
-397 -364 -448 -78 -24 -248 -23 -318 1 -175 61 -306 228 -369 473 -35 136
-37 326 -5 459 42 175 157 356 265 420 122 71 270 87 416 45z"/>
<path d="M28172 22899 c-282 -47 -462 -243 -462 -503 0 -103 19 -168 73 -248
74 -110 211 -199 467 -303 278 -113 377 -184 398 -281 35 -163 -85 -258 -343
-271 -138 -7 -286 10 -430 48 -60 17 -119 32 -131 35 -19 5 -23 -2 -44 -103
-13 -59 -23 -124 -24 -143 l-1 -34 65 -13 c263 -49 645 -57 802 -15 249 67
371 200 397 436 12 103 1 187 -34 263 -69 151 -196 242 -540 383 -177 73 -258
116 -302 162 -87 91 -82 222 12 286 65 45 118 55 290 56 168 0 276 -15 391
-54 32 -11 61 -17 64 -13 6 7 60 246 60 265 0 11 -128 36 -239 47 -121 13
-393 12 -469 0z"/>
<path d="M24213 18830 c-68 -4 -125 -8 -127 -11 -2 -2 2 -65 9 -139 30 -311
39 -597 38 -1185 0 -543 -14 -1134 -29 -1257 l-6 -48 187 0 187 0 -6 113 c-35
594 -35 1947 0 2445 l6 92 -68 -2 c-38 0 -124 -4 -191 -8z"/>
<path d="M25085 18711 c-45 -20 -91 -69 -112 -118 -20 -49 -17 -156 6 -201 39
-76 87 -102 187 -102 108 0 168 36 210 125 50 105 18 239 -70 290 -54 32 -159
35 -221 6z"/>
<path d="M20370 18669 c-370 -37 -726 -292 -900 -644 -105 -212 -143 -388
-143 -670 -1 -270 35 -443 134 -636 141 -276 410 -491 713 -571 102 -26 319
-36 437 -19 235 35 455 153 645 346 166 170 270 368 325 623 26 123 37 425 20
557 -43 328 -180 582 -414 771 -100 80 -190 134 -294 175 -146 59 -352 86
-523 68z m250 -286 c96 -22 214 -83 305 -156 172 -139 268 -303 322 -549 25
-118 25 -428 0 -548 -62 -288 -208 -512 -419 -643 -124 -77 -180 -92 -343 -92
-127 0 -147 3 -220 28 -211 74 -396 239 -496 443 -132 270 -141 707 -20 1008
110 275 352 487 600 526 70 11 185 4 271 -17z"/>
<path d="M28490 18036 c-182 -39 -323 -127 -443 -277 -109 -136 -186 -309
-218 -489 -18 -106 -16 -337 4 -428 41 -180 132 -338 268 -466 172 -162 401
-236 732 -236 204 0 479 40 505 73 15 19 40 267 27 267 -6 0 -51 -9 -100 -19
-153 -33 -276 -44 -442 -39 -140 4 -167 8 -243 33 -155 53 -288 164 -368 305
-39 70 -82 202 -82 255 l0 32 498 7 c273 3 561 9 640 12 l142 7 0 167 c0 103
-5 197 -14 242 -53 276 -230 476 -481 544 -82 22 -337 28 -425 10z m361 -268
c143 -65 220 -195 235 -393 l7 -82 -249 -7 c-137 -3 -352 -9 -478 -12 l-228
-6 7 43 c31 186 131 355 253 426 85 50 146 63 277 60 104 -3 127 -6 176 -29z"/>
<path d="M22821 18020 c-143 -30 -308 -113 -412 -207 -44 -39 -41 -43 -60 89
-6 48 -15 92 -19 98 -4 7 -50 4 -151 -10 -79 -11 -153 -23 -165 -25 -21 -5
-21 -5 -3 -102 70 -396 79 -725 41 -1531 l-7 -142 173 0 172 0 0 690 0 689 53
40 c152 114 348 168 514 142 199 -31 290 -108 334 -282 21 -81 22 -98 16 -499
-5 -368 -16 -603 -32 -737 l-5 -43 176 0 175 0 -3 703 c-3 631 -5 708 -21 760
-56 189 -160 290 -357 347 -58 17 -109 23 -225 25 -82 2 -170 0 -194 -5z"/>
<path d="M26591 18020 c-141 -30 -276 -98 -402 -202 l-47 -38 -5 33 c-3 17
-11 68 -18 112 -6 44 -13 81 -14 83 -5 5 -320 -41 -328 -48 -4 -4 1 -62 13
-129 65 -381 74 -780 33 -1523 l-6 -118 175 0 175 0 -5 688 -5 689 64 45 c218
155 473 189 669 91 116 -59 166 -142 190 -314 17 -119 3 -690 -26 -1106 l-7
-93 174 0 174 0 -2 677 c-2 755 -3 767 -68 900 -23 46 -52 87 -83 114 -54 48
-159 101 -247 125 -71 19 -337 28 -404 14z"/>
<path d="M25125 17983 c-99 -14 -181 -26 -183 -28 -2 -2 6 -74 17 -161 36
-282 44 -506 37 -969 -3 -236 -9 -476 -12 -532 l-7 -103 172 0 172 0 -8 188
c-10 236 -10 1323 0 1500 4 72 4 131 0 131 -5 -1 -89 -13 -188 -26z"/>
</g>
</svg>
